<mxfile host="app.diagrams.net" modified="2024-07-04T03:28:44.561Z" agent="Mozilla/5.0 (Windows NT 10.0; Win64; x64) AppleWebKit/537.36 (KHTML, like Gecko) Chrome/125.0.0.0 Safari/537.36 Edg/125.0.0.0" version="24.6.4" etag="3MuOev5UzNGDLObIr7Pc" type="github">
  <diagram name="Страница — 1" id="3vRUOhL22bWZZeitL2On">
    <mxGraphModel>
      <root>
        <mxCell id="0" />
        <mxCell id="1" parent="0" />
      </root>
    </mxGraphModel>
  </diagram>
</mxfile>
